<?xml version="1.0" encoding="UTF-8"?>
<svg id="Layer_2" data-name="Layer 2" xmlns="http://www.w3.org/2000/svg" viewBox="0 0 207 162">
  <defs>
    <style>
      .cls-1 {
        fill: #000000;
      }
    </style>
  </defs>
  <g id="Layer_1-2" data-name="Layer 1">
    <g>
      <rect class="cls-1" x="90" y="18" width="9" height="9"/>
      <path class="cls-1" d="M108,0v9h-9v9h9v18h-18v-9h-9v9h-9v126h135V0h-99ZM198,153h-117V45h36V9h81v144Z"/>
    </g>
    <rect class="cls-1" x="162" y="45" width="18" height="18"/>
    <g>
      <polygon class="cls-1" points="180 90 180 81 171 81 171 90 162 90 162 99 153 99 153 108 144 108 144 117 189 117 189 108 189 90 180 90"/>
      <polygon class="cls-1" points="153 99 153 90 153 81 144 81 144 72 135 72 135 63 126 63 126 72 117 72 117 81 108 81 108 90 99 90 99 99 90 99 90 108 90 117 135 117 135 108 144 108 144 99 153 99"/>
    </g>
    <polygon class="cls-1" points="108 126 108 135 153 135 153 144 189 144 189 135 189 126 108 126"/>
    <g>
      <rect class="cls-1" x="27" y="72" width="9" height="9"/>
      <rect class="cls-1" x="36" y="81" width="9" height="9"/>
      <rect class="cls-1" x="45" y="90" width="9" height="9"/>
      <rect class="cls-1" x="36" y="99" width="9" height="9"/>
      <rect class="cls-1" x="27" y="90" width="9" height="9"/>
      <rect class="cls-1" x="18" y="81" width="9" height="9"/>
      <rect class="cls-1" x="9" y="72" width="9" height="9"/>
      <rect class="cls-1" x="18" y="63" width="9" height="9"/>
      <polygon class="cls-1" points="0 54 0 63 0 72 9 72 9 63 18 63 18 54 0 54"/>
      <polygon class="cls-1" points="99 135 99 126 90 126 90 117 81 117 72 117 72 108 63 108 63 99 54 99 54 108 45 108 45 117 54 117 63 117 63 135 72 135 72 144 108 144 108 135 99 135"/>
    </g>
  </g>
</svg>