<?xml version="1.0" encoding="UTF-8"?>
<svg id="Layer_2" data-name="Layer 2" xmlns="http://www.w3.org/2000/svg" viewBox="0 0 207 162">
  <defs>
    <style>
      .cls-1 {
        fill: #231f20;
      }
    </style>
  </defs>
  <g id="Layer_1-2" data-name="Layer 1">
    <g>
      <rect class="cls-1" x="90" y="18" width="9" height="9"/>
      <polygon class="cls-1" points="108 0 108 9 99 9 99 18 108 18 108 36 90 36 90 27 81 27 81 36 72 36 72 72 81 72 81 45 117 45 117 36 117 9 198 9 198 153 81 153 81 126 72 126 72 153 72 162 207 162 207 9 207 0 108 0"/>
    </g>
    <g>
      <rect x="81" y="72" width="9" height="9"/>
      <rect x="72" y="63" width="9" height="9"/>
      <rect x="36" y="117" width="9" height="9"/>
      <polygon points="108 99 108 90 99 90 99 81 90 81 90 90 90 99 99 99 99 117 90 117 90 126 81 126 72 126 72 117 63 117 63 108 54 108 54 99 54 90 54 81 45 81 36 81 36 99 36 108 45 108 45 117 54 117 54 126 63 126 63 135 72 135 72 144 90 144 99 144 99 135 108 135 108 126 117 126 117 117 117 99 108 99"/>
      <rect x="27" y="108" width="9" height="9"/>
      <polygon points="27 90 18 90 18 72 27 72 27 63 36 63 45 63 45 72 54 72 54 81 63 81 63 90 63 99 63 108 72 108 81 108 81 99 81 90 81 81 72 81 72 72 63 72 63 63 54 63 54 54 45 54 45 45 27 45 18 45 18 54 9 54 9 63 0 63 0 90 9 90 9 99 18 99 18 108 27 108 27 99 27 90"/>
    </g>
    <rect x="171" y="153" width="9" height="0"/>
    <g>
      <polygon points="99 54 99 72 180 72 180 126 126 126 126 135 180 135 189 135 189 72 189 54 99 54"/>
      <rect x="126" y="81" width="45" height="9"/>
    </g>
  </g>
</svg>