<?xml version="1.0" encoding="UTF-8"?>
<svg id="Layer_2" data-name="Layer 2" xmlns="http://www.w3.org/2000/svg" viewBox="0 0 207 162">
  <defs>
    <style>
      .cls-1 {
        fill: none;
      }

      .cls-2 {
        fill: #231f20;
      }
    </style>
  </defs>
  <g id="Layer_1-2" data-name="Layer 1">
    <polygon class="cls-1" points="180 54 180 63 180 72 180 108 180 117 180 135 144 135 135 135 81 135 81 153 198 153 198 9 117 9 117 36 117 45 81 45 81 54 135 54 180 54"/>
    <polygon class="cls-1" points="108 36 108 18 99 18 99 27 90 27 90 36 108 36"/>
    <g>
      <rect class="cls-2" x="90" y="18" width="9" height="9"/>
      <polygon class="cls-2" points="108 0 108 9 99 9 99 18 108 18 108 36 90 36 90 27 81 27 81 36 72 36 72 54 72 63 81 63 81 54 81 45 117 45 117 36 117 9 198 9 198 153 81 153 81 144 72 144 72 153 72 162 207 162 207 9 207 0 108 0"/>
    </g>
    <rect class="cls-2" x="90" y="108" width="18" height="9"/>
    <rect class="cls-2" x="72" y="108" width="9" height="9"/>
    <g>
      <polygon class="cls-2" points="126 108 126 90 144 90 144 81 126 81 126 72 117 72 117 63 63 63 54 63 27 63 27 72 54 72 63 72 63 90 72 90 72 72 108 72 108 81 117 81 117 90 117 108 117 117 117 135 63 135 54 135 27 135 27 144 54 144 63 144 117 144 126 144 126 117 144 117 144 108 126 108"/>
      <polygon class="cls-2" points="144 72 144 81 153 81 153 117 144 117 144 126 162 126 162 117 162 81 162 72 144 72"/>
      <polygon class="cls-2" points="63 99 63 90 27 90 27 72 18 72 18 90 9 90 9 72 18 72 18 63 9 63 9 63 0 63 0 99 9 99 9 99 18 99 18 135 27 135 27 99 63 99"/>
    </g>
    <path class="cls-2" d="M189,36v-9h-63v9h9v9h-9v9h-36v18h27v63h-27v9h99v-9h-9v-9h9V45h-9v-9h9ZM144,36h9v9h-9v-9ZM135,135h-9v-9h9v9ZM153,135h-9v-9h9v9ZM153,90h0v27h-9v-9h-18v-27h27v9ZM171,135h-9v-9h9v9ZM171,45h-9v-9h9v9Z"/>
  </g>
</svg>