<?xml version="1.0" encoding="UTF-8"?>
<svg id="Layer_2" data-name="Layer 2" xmlns="http://www.w3.org/2000/svg" viewBox="0 0 207 162">
  <defs>
    <style>
      .cls-1 {
        fill: #231f20;
      }
    </style>
  </defs>
  <g id="Layer_1-2" data-name="Layer 1">
    <g>
      <rect class="cls-1" x="90" y="18" width="9" height="9"/>
      <polygon class="cls-1" points="108 0 108 9 99 9 99 18 108 18 108 36 90 36 90 27 81 27 81 36 72 36 72 81 81 81 81 45 117 45 117 36 117 9 198 9 198 153 81 153 81 135 72 135 72 153 72 162 207 162 207 9 207 0 108 0"/>
    </g>
    <g>
      <polygon class="cls-1" points="45 108 36 108 36 117 45 117 45 126 54 126 54 90 45 90 45 108"/>
      <polygon class="cls-1" points="27 99 27 90 18 90 18 126 27 126 27 108 36 108 36 99 27 99"/>
      <rect class="cls-1" x="72" y="90" width="18" height="9"/>
      <rect class="cls-1" x="63" y="99" width="9" height="9"/>
      <polygon class="cls-1" points="63 117 63 126 90 126 90 117 90 108 72 108 72 117 63 117"/>
      <polygon class="cls-1" points="99 90 99 126 108 126 108 117 117 117 117 108 108 108 108 99 126 99 126 90 108 90 99 90"/>
      <polygon class="cls-1" points="162 90 162 108 153 108 153 99 144 99 144 90 135 90 135 99 135 108 135 117 144 117 144 126 153 126 162 126 162 117 171 117 171 90 162 90"/>
    </g>
    <rect class="cls-1" y="72" width="189" height="9"/>
    <rect class="cls-1" x="180" y="81" width="9" height="63"/>
    <rect class="cls-1" y="81" width="9" height="63"/>
    <rect class="cls-1" y="135" width="180" height="9"/>
    <g>
      <rect class="cls-1" x="135" y="63" width="9" height="9"/>
      <rect class="cls-1" x="108" y="63" width="9" height="9"/>
      <rect class="cls-1" x="117" y="54" width="9" height="9"/>
      <rect class="cls-1" x="171" y="63" width="9" height="9"/>
      <polygon class="cls-1" points="180 18 171 18 171 27 171 36 171 45 180 45 180 54 189 54 189 45 189 18 180 18"/>
      <rect class="cls-1" x="144" y="54" width="9" height="9"/>
      <polygon class="cls-1" points="135 45 135 36 126 36 126 45 126 54 135 54 135 45"/>
      <polygon class="cls-1" points="144 27 144 36 153 36 162 36 162 27 153 27 144 27"/>
      <rect class="cls-1" x="135" y="18" width="9" height="9"/>
    </g>
  </g>
</svg>