<?xml version="1.0" encoding="UTF-8"?>
<svg id="Layer_2" data-name="Layer 2" xmlns="http://www.w3.org/2000/svg" viewBox="0 0 207 162">
  <defs>
    <style>
      .cls-1 {
        fill: #231f20;
      }
    </style>
  </defs>
  <g id="Layer_1-2" data-name="Layer 1">
    <g>
      <rect class="cls-1" x="90" y="18" width="9" height="9"/>
      <path class="cls-1" d="M108,0v9h-9v9h9v18h-18v-9h-9v9h-9v126h135V0h-99ZM198,153h-117V45h36V9h81v144Z"/>
    </g>
    <g>
      <g>
        <polygon class="cls-1" points="27 117 45 117 45 72 0 72 0 117 0 126 9 126 9 135 27 135 27 126 27 117"/>
        <rect class="cls-1" x="27" y="135" width="9" height="9"/>
      </g>
      <g>
        <polygon class="cls-1" points="81 117 99 117 99 72 54 72 54 117 54 126 63 126 63 135 81 135 81 126 81 117"/>
        <rect class="cls-1" x="81" y="135" width="9" height="9"/>
      </g>
    </g>
    <g>
      <rect class="cls-1" x="126" y="36" width="63" height="9"/>
      <rect class="cls-1" x="90" y="54" width="99" height="9"/>
      <rect class="cls-1" x="108" y="72" width="81" height="9"/>
      <rect class="cls-1" x="108" y="90" width="63" height="9"/>
      <rect class="cls-1" x="108" y="108" width="81" height="9"/>
      <rect class="cls-1" x="99" y="126" width="45" height="9"/>
    </g>
  </g>
</svg>